Coordinates
version=1
nRows=14
nColumns=40
inDegrees=yes

Units are S.I. units (second, meters, Newtons, ...)
Angles are in degrees.

endheader
time	pelvis_tilt	pelvis_list	pelvis_rotation	pelvis_tx	pelvis_ty	pelvis_tz	hip_flexion_r	hip_adduction_r	hip_rotation_r	knee_angle_r	knee_angle_r_beta	ankle_angle_r	subtalar_angle_r	mtp_angle_r	hip_flexion_l	hip_adduction_l	hip_rotation_l	knee_angle_l	knee_angle_l_beta	ankle_angle_l	subtalar_angle_l	mtp_angle_l	lumbar_extension	lumbar_bending	lumbar_rotation	arm_flex_r	arm_add_r	arm_rot_r	elbow_flex_r	pro_sup_r	wrist_flex_r	wrist_dev_r	arm_flex_l	arm_add_l	arm_rot_l	elbow_flex_l	pro_sup_l	wrist_flex_l	wrist_dev_l
     50.61000000	     -4.44483232	     -4.15115451	     -0.41183439	      1.11169111	      0.93162289	      0.44336907	     32.57710333	     -5.20020920	     -4.20099312	     71.71770302	     71.71770302	     -2.36541176	    -16.97379521	      2.26591163	     17.41997668	     -3.93237356	     -5.35063255	     22.59638778	     22.59638778	     12.24345583	    -11.89106047	      0.70752841	    -10.24592858	      6.22108348	      1.67884987	     12.90982247	    -11.81613098	    -12.44164966	     51.48658517	     45.53577815	      0.00000000	      0.00000000	     12.13534142	    -14.24212428	      5.03316494	     41.55027880	     45.90019146	      0.00000000	      0.00000000
     50.62192857	     -4.39944707	     -4.25840763	     -0.55656011	      1.11008902	      0.93243385	      0.44274397	     33.98482781	     -5.13332593	     -4.37358981	     69.98002933	     69.98002933	     -2.05690289	    -17.14734063	      2.06101992	     16.45398916	     -3.92708730	     -5.19306820	     22.04532531	     22.04532531	     12.45794185	    -12.22756749	      0.77119130	    -10.42071944	      6.54946206	      2.25637038	     10.42145566	    -12.11073219	    -12.43027860	     48.34210539	     45.63938840	      0.00000000	      0.00000000	     14.49159777	    -14.44190320	      4.78650549	     43.01055391	     45.97012854	      0.00000000	      0.00000000
     50.63385714	     -4.28531164	     -4.42645863	     -0.70026741	      1.10857628	      0.93336574	      0.44221110	     35.08247101	     -4.95114229	     -4.59340179	     67.87431799	     67.87431799	     -1.81667640	    -17.30592081	      2.06272085	     15.37434591	     -4.05831344	     -5.32151794	     21.42477891	     21.42477891	     12.74877023	    -12.02703408	      0.67858254	    -10.71056629	      6.93747537	      2.68146422	      8.18848658	    -12.23596077	    -12.43308930	     45.13691139	     45.74780569	      0.00000000	      0.00000000	     16.65515997	    -14.71496252	      4.51920930	     44.66242723	     46.03972408	      0.00000000	      0.00000000
     50.64578571	     -4.13975508	     -4.50622826	     -0.87948470	      1.10718624	      0.93409912	      0.44181104	     35.99110889	     -4.78156409	     -4.72546589	     65.53832105	     65.53832105	     -1.63462960	    -17.35850170	      2.13472343	     14.30998618	     -4.12542264	     -5.57599542	     20.91156635	     20.91156635	     13.04118952	    -11.74204595	      0.40609140	    -10.99781291	      7.19878500	      3.10604777	      6.60603382	    -12.24114239	    -12.57220359	     40.44815430	     45.92571242	      0.00000000	      0.00000000	     18.71460193	    -15.06833133	      4.24914241	     46.71573239	     46.11537486	      0.00000000	      0.00000000
     50.65771429	     -4.10980577	     -4.63474902	     -0.97903749	      1.10576574	      0.93462608	      0.44145811	     36.80579968	     -4.59447285	     -5.01547044	     62.85315949	     62.85315949	     -1.52757783	    -17.27078737	      2.19487997	     13.37643850	     -4.23939327	     -5.77485692	     20.35277540	     20.35277540	     13.22181374	    -11.42606831	     -0.20798717	    -11.09355405	      7.49309452	      1.95135170	      7.57549449	    -11.48080813	    -13.63734309	     31.79664946	     46.33545659	      0.00000000	      0.00000000	     19.41356280	    -16.37995776	      3.51095399	     49.56109201	     46.25210403	      0.00000000	      0.00000000
     50.66964286	     -4.04249661	     -4.70468684	     -1.11225747	      1.10449201	      0.93506811	      0.44116367	     37.40153878	     -4.41570048	     -5.27937302	     59.86047512	     59.86047512	     -1.43746180	    -17.01526017	      2.28973362	     12.38933443	     -4.28463290	     -5.99324994	     19.79134359	     19.79134359	     13.50490226	    -11.09878843	     -0.47985216	    -11.34909115	      7.74945724	      2.01911139	      6.25393133	    -11.34741179	    -14.65085479	     28.04130982	     46.55616402	      0.00000000	      0.00000000	     20.87796348	    -16.78895593	      2.27712183	     52.02219653	     46.43340688	      0.00000000	      0.00000000
     50.68157143	     -3.97298923	     -4.76538256	     -1.22873487	      1.10333156	      0.93538627	      0.44099949	     37.81617288	     -4.19987741	     -5.56358206	     56.58939022	     56.58939022	     -1.28082987	    -16.52902967	      2.47715516	     11.36484597	     -4.31717684	     -6.19965272	     19.16807916	     19.16807916	     13.81115989	    -10.79267127	     -0.55420489	    -11.57450551	      8.00747593	      2.23663267	      4.04061864	    -11.39953217	    -14.82195333	     26.22745992	     46.63202321	      0.00000000	      0.00000000	     22.76682427	    -17.04177930	      1.78764983	     53.69158708	     46.51668445	      0.00000000	      0.00000000
     50.69350000	     -3.95030391	     -4.77379725	     -1.34239921	      1.10230188	      0.93549812	      0.44092096	     38.06966104	     -4.01664002	     -5.89097087	     52.98492155	     52.98492155	     -1.11821369	    -15.71386970	      2.42997238	     10.40191153	     -4.30534919	     -6.46488138	     18.57427751	     18.57427751	     14.12243117	    -10.37490398	     -0.75148709	    -11.73878525	      8.19377881	      2.45074046	      2.01345184	    -11.42136693	    -15.02853512	     24.31151107	     46.72201344	      0.00000000	      0.00000000	     24.45126232	    -17.34843383	      1.26254939	     55.55768769	     46.60156514	      0.00000000	      0.00000000
     50.70542857	     -3.96213596	     -4.72756521	     -1.45885248	      1.10140939	      0.93538241	      0.44101974	     38.16092747	     -3.86422748	     -6.27785910	     49.08377904	     49.08377904	     -1.02202077	    -14.53948719	      2.06050310	      9.44795418	     -4.25413806	     -6.80064266	     17.94667424	     17.94667424	     14.42827216	     -9.86050338	     -1.06790529	    -11.83351904	      8.28152238	      2.52183220	      0.08352424	    -11.36033981	    -15.33139602	     22.39514622	     46.82887527	      0.00000000	      0.00000000	     25.93304087	    -17.73741954	      0.64234840	     57.71388689	     46.69597873	      0.00000000	      0.00000000
     50.71735714	     -4.08039676	     -4.63757267	     -1.55128817	      1.10068352	      0.93496544	      0.44120273	     38.09259166	     -3.72789844	     -6.75439594	     44.77505106	     44.77505106	     -1.43713410	    -13.25664335	      0.25151722	      8.59307782	     -4.17427331	     -7.22377360	     17.29313304	     17.29313304	     14.59920064	     -9.19319715	     -1.84883572	    -11.78206503	      8.32204115	      2.03936545	     -1.26644378	    -11.18955861	    -16.37239217	     20.02188420	     47.07281094	      0.00000000	      0.00000000	     26.47126771	    -18.51565216	     -0.56594373	     61.12467474	     46.85486326	      0.00000000	      0.00000000
     50.72928571	     -4.07869849	     -4.51753830	     -1.65008882	      1.10023511	      0.93453091	      0.44154688	     37.71954584	     -3.58314571	     -7.29607688	     40.36815650	     40.36815650	     -1.27261372	    -11.27564026	     -0.15900240	      7.54836491	     -4.03174726	     -7.53257185	     16.57481405	     16.57481405	     14.89098881	     -8.68566385	     -2.18208228	    -11.81234415	      8.31997493	      1.94891605	     -3.30631230	    -11.09350994	    -16.93979053	     18.99968743	     47.18782029	      0.00000000	      0.00000000	     27.78358338	    -18.95802162	     -1.28449294	     63.09089082	     46.95480595	      0.00000000	      0.00000000
     50.74121429	     -4.08832110	     -4.42013762	     -1.72454688	      1.10000882	      0.93389709	      0.44205150	     37.14318196	     -3.35016557	     -7.88862094	     35.82505775	     35.82505775	     -0.99640051	     -9.08452453	      0.06841999	      6.53334765	     -3.92589224	     -7.82642168	     15.92039557	     15.92039557	     15.23475754	     -8.15974972	     -2.47578988	    -11.78240795	      8.33905768	      1.82084148	     -5.41462271	    -11.03370882	    -17.22650914	     18.28702852	     47.24215488	      0.00000000	      0.00000000	     29.06941670	    -19.45434528	     -1.77133661	     64.69894330	     47.02698365	      0.00000000	      0.00000000
     50.75314286	     -4.08462092	     -4.22739498	     -1.80261326	      1.10009302	      0.93302903	      0.44272467	     36.40290411	     -3.16630813	     -8.52443523	     31.32216037	     31.32216037	     -0.75770330	     -6.68918320	      0.57682451	      5.44156572	     -3.72741464	     -8.21319621	     15.19304725	     15.19304725	     15.56922240	     -7.48211154	     -2.84249375	    -11.72368499	      8.20104418	      1.74680886	     -7.60429503	    -10.92633376	    -17.51915259	     17.74869034	     47.28623683	      0.00000000	      0.00000000	     30.26579065	    -19.91132517	     -2.23155247	     66.48834799	     47.09954471	      0.00000000	      0.00000000
     50.76507143	     -3.96757525	     -3.92417789	     -1.91632901	      1.10063340	      0.93189483	      0.44358138	     35.58327825	     -3.11675217	     -9.29295234	     27.36391770	     27.36391770	      0.02155682	     -3.81770024	      2.23004518	      4.15113204	     -3.45617747	     -8.97277647	     14.39129115	     14.39129115	     15.78527971	     -6.34578328	     -4.02739206	    -11.79266391	      7.89654471	      1.48407796	    -10.03240979	    -10.67645028	    -18.85880734	     18.67703436	     47.41243616	      0.00000000	      0.00000000	     30.70362896	    -20.63109525	     -3.08718902	     70.04780475	     47.24293257	      0.00000000	      0.00000000
